<svg xmlns="http://www.w3.org/2000/svg" width="900" height="520" viewBox="0 0 900 520">
<rect width="900" height="520" rx="42" fill="#FBE1EE"/>
<rect x="105" y="92" width="690" height="336" rx="30" fill="#FFFDF9" stroke="#4F3328" stroke-width="10"/>
<rect x="150" y="145" width="250" height="220" rx="22" fill="#D7E9F5"/><circle cx="275" cy="230" r="55" fill="#F6D56A"/><path d="M188 340l70-78 55 50 50-62 37 90z" fill="#CDE8C5"/>
<rect x="450" y="150" width="285" height="56" rx="18" fill="#F2D4C2"/><rect x="450" y="230" width="220" height="25" rx="12" fill="#DED6F3"/><rect x="450" y="278" width="252" height="25" rx="12" fill="#FAED9A"/><rect x="450" y="326" width="175" height="25" rx="12" fill="#D7E9F5"/>
<path d="M718 78l9 23 23 9-23 9-9 23-9-23-23-9 23-9z" fill="#F0CB58"/><path d="M120 382l6 14 14 6-14 6-6 14-6-14-14-6 14-6z" fill="#C8B9EA"/>
</svg>