<svg xmlns="http://www.w3.org/2000/svg" width="900" height="520" viewBox="0 0 900 520">
<rect width="900" height="520" rx="42" fill="#DDEEF7"/>
<path d="M450 70l220 70v135c0 100-77 151-220 183-143-32-220-83-220-183V140z" fill="#FFFDF9" stroke="#4F3328" stroke-width="10"/>
<circle cx="450" cy="245" r="92" fill="#DFF0D8" stroke="#4F3328" stroke-width="9"/>
<text x="450" y="265" text-anchor="middle" font-family="Arial" font-size="72" font-weight="800" fill="#4F3328">AI</text>
<path d="M372 344l42 40 90-100" fill="none" stroke="#4F3328" stroke-width="18" stroke-linecap="round" stroke-linejoin="round"/>
<path d="M715 105l8 20 20 8-20 8-8 20-8-20-20-8 20-8z" fill="#F0CB58"/><path d="M178 360l6 14 14 6-14 6-6 14-6-14-14-6 14-6z" fill="#C8B9EA"/>
</svg>