<svg xmlns="http://www.w3.org/2000/svg" width="900" height="520" viewBox="0 0 900 520">
<rect width="900" height="520" rx="42" fill="#FFF7D6"/>
<rect x="95" y="78" width="710" height="360" rx="28" fill="#fff" stroke="#4F3328" stroke-width="10"/>
<rect x="128" y="112" width="644" height="62" rx="31" fill="#D7E9F5"/>
<circle cx="170" cy="143" r="13" fill="#F2C9DA"/><circle cx="210" cy="143" r="13" fill="#FAED9A"/><circle cx="250" cy="143" r="13" fill="#CDE8C5"/>
<circle cx="694" cy="143" r="21" fill="none" stroke="#4F3328" stroke-width="8"/><path d="M710 160l30 30" stroke="#4F3328" stroke-width="9" stroke-linecap="round"/>
<rect x="150" y="220" width="240" height="142" rx="18" fill="#DED6F3"/><rect x="420" y="220" width="330" height="26" rx="13" fill="#EAD9CD"/><rect x="420" y="270" width="280" height="22" rx="11" fill="#D7E9F5"/><rect x="420" y="314" width="220" height="22" rx="11" fill="#F2C9DA"/>
<path d="M212 276h112M212 316h72" stroke="#4F3328" stroke-width="12" stroke-linecap="round"/>
<path fill="#F0CB58" d="M800 58l6 15 15 6-15 6-6 15-6-15-15-6 15-6z"/><path fill="#C8B9EA" d="M63 392l5 13 13 5-13 5-5 13-5-13-13-5 13-5z"/>
</svg>