<svg xmlns="http://www.w3.org/2000/svg" width="180" height="150" viewBox="0 0 180 150">
<g opacity=".72">
<path fill="#C8B9EA" d="M18 16l2.2 5.8 5.8 2.2-5.8 2.2L18 32l-2.2-5.8L10 24l5.8-2.2z"/>
<path fill="#F2C9DA" d="M82 30l1.7 4.3 4.3 1.7-4.3 1.7L82 42l-1.7-4.3L76 36l4.3-1.7z"/>
<path fill="#F3D76E" d="M148 18l2.4 6.1 6.1 2.4-6.1 2.4L148 35l-2.4-6.1-6.1-2.4 6.1-2.4z"/>
<path fill="#BFDDAF" d="M44 92l2 5 5 2-5 2-2 5-2-5-5-2 5-2z"/>
<path fill="#BBD9EA" d="M122 92l1.8 4.6 4.6 1.8-4.6 1.8-1.8 4.6-1.8-4.6-4.6-1.8 4.6-1.8z"/>
<path fill="#9B755F" d="M165 128l1.4 3.6 3.6 1.4-3.6 1.4-1.4 3.6-1.4-3.6-3.6-1.4 3.6-1.4z"/>
<circle cx="28" cy="130" r="2.4" fill="#E0B8A0"/><circle cx="100" cy="124" r="2" fill="#C8B9EA"/><circle cx="156" cy="70" r="2.2" fill="#F2C9DA"/>
</g></svg>